<mxfile host="app.diagrams.net" agent="Mozilla/5.0 (Windows NT 10.0; Win64; x64) AppleWebKit/537.36 (KHTML, like Gecko) Chrome/136.0.0.0 Safari/537.36" version="27.1.1">
  <diagram name="Page-1" id="cT7ulfL_7a_OSv9fIoW0">
    <mxGraphModel dx="1154" dy="818" grid="1" gridSize="10" guides="1" tooltips="1" connect="1" arrows="1" fold="1" page="1" pageScale="1" pageWidth="827" pageHeight="1169" math="0" shadow="0">
      <root>
        <mxCell id="0" />
        <mxCell id="1" parent="0" />
        <mxCell id="Utv0hadqQ1HH19LhgSis-7" value="" style="edgeStyle=orthogonalEdgeStyle;rounded=0;orthogonalLoop=1;jettySize=auto;html=1;" edge="1" parent="1" source="Utv0hadqQ1HH19LhgSis-1" target="Utv0hadqQ1HH19LhgSis-4">
          <mxGeometry relative="1" as="geometry" />
        </mxCell>
        <mxCell id="Utv0hadqQ1HH19LhgSis-1" value="ESP32&lt;br&gt;&lt;div&gt;HTTP Post&lt;/div&gt;&lt;div&gt;&lt;br&gt;&lt;/div&gt;" style="shape=offPageConnector;whiteSpace=wrap;html=1;" vertex="1" parent="1">
          <mxGeometry x="280" y="40" width="80" height="80" as="geometry" />
        </mxCell>
        <mxCell id="Utv0hadqQ1HH19LhgSis-2" value="Returnere global&lt;div&gt;Respone_data&lt;br&gt;&lt;div&gt;fra Raspberry Pi&lt;/div&gt;&lt;div&gt;til ESP&lt;/div&gt;&lt;/div&gt;" style="shape=process;whiteSpace=wrap;html=1;backgroundOutline=1;" vertex="1" parent="1">
          <mxGeometry x="260" y="640" width="120" height="60" as="geometry" />
        </mxCell>
        <mxCell id="Utv0hadqQ1HH19LhgSis-6" value="" style="edgeStyle=orthogonalEdgeStyle;rounded=0;orthogonalLoop=1;jettySize=auto;html=1;" edge="1" parent="1" source="Utv0hadqQ1HH19LhgSis-4" target="Utv0hadqQ1HH19LhgSis-5">
          <mxGeometry relative="1" as="geometry" />
        </mxCell>
        <mxCell id="Utv0hadqQ1HH19LhgSis-8" value="" style="edgeStyle=orthogonalEdgeStyle;rounded=0;orthogonalLoop=1;jettySize=auto;html=1;entryX=0.5;entryY=0;entryDx=0;entryDy=0;" edge="1" parent="1" source="Utv0hadqQ1HH19LhgSis-4" target="Utv0hadqQ1HH19LhgSis-9">
          <mxGeometry relative="1" as="geometry">
            <mxPoint x="170" y="190" as="targetPoint" />
            <Array as="points">
              <mxPoint x="175" y="190" />
            </Array>
          </mxGeometry>
        </mxCell>
        <mxCell id="Utv0hadqQ1HH19LhgSis-4" value="Data bliver sendt til&lt;div&gt;anden funktion som&lt;/div&gt;&lt;div&gt;sender data med HTTP&lt;/div&gt;" style="rounded=0;whiteSpace=wrap;html=1;" vertex="1" parent="1">
          <mxGeometry x="250" y="160" width="140" height="60" as="geometry" />
        </mxCell>
        <mxCell id="Utv0hadqQ1HH19LhgSis-12" value="" style="edgeStyle=orthogonalEdgeStyle;rounded=0;orthogonalLoop=1;jettySize=auto;html=1;" edge="1" parent="1" source="Utv0hadqQ1HH19LhgSis-5" target="Utv0hadqQ1HH19LhgSis-11">
          <mxGeometry relative="1" as="geometry" />
        </mxCell>
        <mxCell id="Utv0hadqQ1HH19LhgSis-5" value="Timer starter&lt;div&gt;Normalt 5 sekunder&lt;/div&gt;" style="rounded=0;whiteSpace=wrap;html=1;" vertex="1" parent="1">
          <mxGeometry x="395" y="250" width="140" height="60" as="geometry" />
        </mxCell>
        <mxCell id="Utv0hadqQ1HH19LhgSis-24" value="" style="edgeStyle=orthogonalEdgeStyle;rounded=0;orthogonalLoop=1;jettySize=auto;html=1;entryX=0.5;entryY=0;entryDx=0;entryDy=0;exitX=0.5;exitY=1;exitDx=0;exitDy=0;" edge="1" parent="1" source="Utv0hadqQ1HH19LhgSis-25" target="Utv0hadqQ1HH19LhgSis-2">
          <mxGeometry relative="1" as="geometry">
            <mxPoint x="145" y="430" as="targetPoint" />
            <mxPoint x="170" y="450" as="sourcePoint" />
            <Array as="points">
              <mxPoint x="180" y="430" />
              <mxPoint x="180" y="620" />
              <mxPoint x="320" y="620" />
            </Array>
          </mxGeometry>
        </mxCell>
        <mxCell id="Utv0hadqQ1HH19LhgSis-26" value="" style="edgeStyle=orthogonalEdgeStyle;rounded=0;orthogonalLoop=1;jettySize=auto;html=1;" edge="1" parent="1" source="Utv0hadqQ1HH19LhgSis-9" target="Utv0hadqQ1HH19LhgSis-25">
          <mxGeometry relative="1" as="geometry">
            <Array as="points">
              <mxPoint x="180" y="360" />
              <mxPoint x="180" y="360" />
            </Array>
          </mxGeometry>
        </mxCell>
        <mxCell id="Utv0hadqQ1HH19LhgSis-9" value="Data sendes&amp;nbsp;&lt;span style=&quot;background-color: transparent; color: light-dark(rgb(0, 0, 0), rgb(255, 255, 255));&quot;&gt;som JSON i&lt;/span&gt;&lt;div&gt;&lt;span style=&quot;background-color: transparent; color: light-dark(rgb(0, 0, 0), rgb(255, 255, 255));&quot;&gt;&amp;nbsp;en&amp;nbsp;&lt;/span&gt;&lt;span style=&quot;background-color: transparent; color: light-dark(rgb(0, 0, 0), rgb(255, 255, 255));&quot;&gt;HTTP-pakke til&lt;/span&gt;&lt;div&gt;Raspberry pi&lt;/div&gt;&lt;div&gt;Hvis der ikke kommer&lt;/div&gt;&lt;div&gt;svar fryser denne process&lt;/div&gt;&lt;/div&gt;" style="shape=parallelogram;perimeter=parallelogramPerimeter;whiteSpace=wrap;html=1;fixedSize=1;" vertex="1" parent="1">
          <mxGeometry x="80" y="240" width="190" height="110" as="geometry" />
        </mxCell>
        <mxCell id="Utv0hadqQ1HH19LhgSis-13" value="" style="edgeStyle=orthogonalEdgeStyle;rounded=0;orthogonalLoop=1;jettySize=auto;html=1;entryX=0.5;entryY=0;entryDx=0;entryDy=0;" edge="1" parent="1" source="Utv0hadqQ1HH19LhgSis-11" target="Utv0hadqQ1HH19LhgSis-2">
          <mxGeometry relative="1" as="geometry">
            <mxPoint x="390" y="405" as="targetPoint" />
            <Array as="points">
              <mxPoint x="340" y="405" />
              <mxPoint x="340" y="480" />
              <mxPoint x="180" y="480" />
              <mxPoint x="180" y="620" />
              <mxPoint x="320" y="620" />
            </Array>
          </mxGeometry>
        </mxCell>
        <mxCell id="Utv0hadqQ1HH19LhgSis-15" value="Ja" style="edgeLabel;html=1;align=center;verticalAlign=middle;resizable=0;points=[];" vertex="1" connectable="0" parent="Utv0hadqQ1HH19LhgSis-13">
          <mxGeometry x="-0.0962" y="-3" relative="1" as="geometry">
            <mxPoint x="213" y="-34" as="offset" />
          </mxGeometry>
        </mxCell>
        <mxCell id="Utv0hadqQ1HH19LhgSis-17" value="" style="edgeStyle=orthogonalEdgeStyle;rounded=0;orthogonalLoop=1;jettySize=auto;html=1;" edge="1" parent="1" source="Utv0hadqQ1HH19LhgSis-11" target="Utv0hadqQ1HH19LhgSis-16">
          <mxGeometry relative="1" as="geometry" />
        </mxCell>
        <mxCell id="Utv0hadqQ1HH19LhgSis-22" value="Nej" style="edgeLabel;html=1;align=center;verticalAlign=middle;resizable=0;points=[];" vertex="1" connectable="0" parent="Utv0hadqQ1HH19LhgSis-17">
          <mxGeometry x="-0.38" y="-2" relative="1" as="geometry">
            <mxPoint y="8" as="offset" />
          </mxGeometry>
        </mxCell>
        <mxCell id="Utv0hadqQ1HH19LhgSis-11" value="Er global&lt;div&gt;request_done&lt;/div&gt;&lt;div&gt;= True?&lt;/div&gt;" style="rhombus;whiteSpace=wrap;html=1;" vertex="1" parent="1">
          <mxGeometry x="410" y="350" width="110" height="110" as="geometry" />
        </mxCell>
        <mxCell id="Utv0hadqQ1HH19LhgSis-20" value="" style="edgeStyle=orthogonalEdgeStyle;rounded=0;orthogonalLoop=1;jettySize=auto;html=1;" edge="1" parent="1" source="Utv0hadqQ1HH19LhgSis-16" target="Utv0hadqQ1HH19LhgSis-19">
          <mxGeometry relative="1" as="geometry" />
        </mxCell>
        <mxCell id="Utv0hadqQ1HH19LhgSis-23" value="" style="edgeStyle=orthogonalEdgeStyle;rounded=0;orthogonalLoop=1;jettySize=auto;html=1;entryX=1;entryY=0.5;entryDx=0;entryDy=0;" edge="1" parent="1" source="Utv0hadqQ1HH19LhgSis-16" target="Utv0hadqQ1HH19LhgSis-5">
          <mxGeometry relative="1" as="geometry">
            <mxPoint x="615" y="555" as="targetPoint" />
            <Array as="points">
              <mxPoint x="580" y="555" />
              <mxPoint x="580" y="280" />
            </Array>
          </mxGeometry>
        </mxCell>
        <mxCell id="Utv0hadqQ1HH19LhgSis-16" value="Er timer&lt;div&gt;gået?&lt;/div&gt;" style="rhombus;whiteSpace=wrap;html=1;" vertex="1" parent="1">
          <mxGeometry x="410" y="500" width="110" height="110" as="geometry" />
        </mxCell>
        <mxCell id="Utv0hadqQ1HH19LhgSis-21" value="" style="edgeStyle=orthogonalEdgeStyle;rounded=0;orthogonalLoop=1;jettySize=auto;html=1;" edge="1" parent="1" source="Utv0hadqQ1HH19LhgSis-19" target="Utv0hadqQ1HH19LhgSis-2">
          <mxGeometry relative="1" as="geometry">
            <Array as="points">
              <mxPoint x="320" y="600" />
              <mxPoint x="320" y="600" />
            </Array>
          </mxGeometry>
        </mxCell>
        <mxCell id="Utv0hadqQ1HH19LhgSis-19" value="Noter timeout og stopper&lt;div&gt;parralel tråd&lt;/div&gt;" style="rounded=0;whiteSpace=wrap;html=1;" vertex="1" parent="1">
          <mxGeometry x="220" y="525" width="160" height="60" as="geometry" />
        </mxCell>
        <mxCell id="Utv0hadqQ1HH19LhgSis-25" value="request_done = True&lt;div&gt;respone_data = data&lt;/div&gt;" style="whiteSpace=wrap;html=1;" vertex="1" parent="1">
          <mxGeometry x="110" y="370" width="150" height="60" as="geometry" />
        </mxCell>
      </root>
    </mxGraphModel>
  </diagram>
</mxfile>
